<svg width="352" height="88" viewBox="0 0 352 88" fill="none" xmlns="http://www.w3.org/2000/svg">
<path d="M51.9999 44C51.9999 53.9411 43.9411 61.9999 34 61.9999C24.0589 61.9999 16 53.9411 16 44C16 34.0589 24.0589 26 34 26C43.9411 26 51.9999 34.0589 51.9999 44Z" stroke="#C1EF00" stroke-width="12"/>
<path d="M71.7646 44C71.7646 53.9411 63.7057 61.9999 53.7646 61.9999C43.8235 61.9999 35.7646 53.9411 35.7646 44C35.7646 34.0589 43.8235 26 53.7646 26C63.7057 26 71.7646 34.0589 71.7646 44Z" stroke="#D8D8D8" stroke-opacity="0.2" stroke-width="12"/>
<path d="M101.856 20.9545L112.265 55.0455H112.651L123.06 20.9545H135.651L119.946 67.5H104.969L89.2646 20.9545H101.856ZM147.721 68.0909C145.494 68.0909 143.516 67.7197 141.789 66.9773C140.077 66.2197 138.721 65.0833 137.721 63.5682C136.736 62.0379 136.244 60.1212 136.244 57.8182C136.244 55.8788 136.584 54.2424 137.266 52.9091C137.948 51.5758 138.887 50.4924 140.084 49.6591C141.281 48.8258 142.66 48.197 144.221 47.7727C145.781 47.3333 147.448 47.0379 149.221 46.8864C151.206 46.7045 152.804 46.5152 154.016 46.3182C155.228 46.1061 156.107 45.8106 156.653 45.4318C157.213 45.0379 157.494 44.4848 157.494 43.7727V43.6591C157.494 42.4924 157.092 41.5909 156.289 40.9545C155.486 40.3182 154.403 40 153.039 40C151.569 40 150.387 40.3182 149.494 40.9545C148.6 41.5909 148.031 42.4697 147.789 43.5909L137.539 43.2273C137.842 41.1061 138.622 39.2121 139.88 37.5455C141.153 35.8636 142.895 34.5455 145.107 33.5909C147.334 32.6212 150.009 32.1364 153.13 32.1364C155.357 32.1364 157.41 32.4015 159.289 32.9318C161.168 33.447 162.804 34.2045 164.198 35.2045C165.592 36.1894 166.668 37.4015 167.425 38.8409C168.198 40.2803 168.584 41.9242 168.584 43.7727V67.5H158.13V62.6364H157.857C157.236 63.8182 156.44 64.8182 155.471 65.6364C154.516 66.4545 153.387 67.0682 152.084 67.4773C150.797 67.8864 149.342 68.0909 147.721 68.0909ZM151.153 60.8182C152.35 60.8182 153.425 60.5758 154.38 60.0909C155.35 59.6061 156.122 58.9394 156.698 58.0909C157.274 57.2273 157.562 56.2273 157.562 55.0909V51.7727C157.244 51.9394 156.857 52.0909 156.403 52.2273C155.963 52.3636 155.478 52.4924 154.948 52.6136C154.418 52.7348 153.872 52.8409 153.312 52.9318C152.751 53.0227 152.213 53.1061 151.698 53.1818C150.653 53.3485 149.759 53.6061 149.016 53.9545C148.289 54.303 147.728 54.7576 147.334 55.3182C146.956 55.8636 146.766 56.5152 146.766 57.2727C146.766 58.4242 147.175 59.303 147.994 59.9091C148.827 60.5152 149.88 60.8182 151.153 60.8182ZM187.774 20.9545V67.5H176.66V20.9545H187.774ZM207.241 20.9545V67.5H196.127V20.9545H207.241ZM235.299 32.5909V40.7727H213.277V32.5909H235.299ZM217.89 24.2273H229.004V56.5227C229.004 57.2045 229.11 57.7576 229.322 58.1818C229.549 58.5909 229.875 58.8864 230.299 59.0682C230.724 59.2348 231.231 59.3182 231.822 59.3182C232.246 59.3182 232.693 59.2803 233.163 59.2045C233.648 59.1136 234.012 59.0379 234.254 58.9773L235.936 67C235.405 67.1515 234.655 67.3409 233.686 67.5682C232.731 67.7955 231.587 67.9394 230.254 68C227.648 68.1212 225.413 67.8182 223.549 67.0909C221.701 66.3485 220.284 65.197 219.299 63.6364C218.33 62.0758 217.86 60.1136 217.89 57.75V24.2273ZM258.193 68.1591C254.542 68.1591 251.39 67.4394 248.739 66C246.102 64.5455 244.072 62.4773 242.648 59.7955C241.239 57.0985 240.534 53.8939 240.534 50.1818C240.534 46.5758 241.246 43.4242 242.67 40.7273C244.095 38.0152 246.102 35.9091 248.693 34.4091C251.284 32.8939 254.337 32.1364 257.852 32.1364C260.337 32.1364 262.61 32.5227 264.67 33.2955C266.731 34.0682 268.511 35.2121 270.011 36.7273C271.511 38.2424 272.678 40.1136 273.511 42.3409C274.345 44.553 274.761 47.0909 274.761 49.9545V52.7273H244.42V46.2727H264.42C264.405 45.0909 264.125 44.0379 263.579 43.1136C263.034 42.1894 262.284 41.4697 261.329 40.9545C260.39 40.4242 259.307 40.1591 258.079 40.1591C256.837 40.1591 255.723 40.4394 254.739 41C253.754 41.5455 252.973 42.2955 252.398 43.25C251.822 44.1894 251.519 45.2576 251.489 46.4545V53.0227C251.489 54.447 251.769 55.697 252.329 56.7727C252.89 57.8333 253.685 58.6591 254.716 59.25C255.746 59.8409 256.973 60.1364 258.398 60.1364C259.382 60.1364 260.276 60 261.079 59.7273C261.882 59.4545 262.572 59.053 263.148 58.5227C263.723 57.9924 264.155 57.3409 264.443 56.5682L274.648 56.8636C274.223 59.1515 273.292 61.1439 271.852 62.8409C270.428 64.5227 268.557 65.8333 266.239 66.7727C263.92 67.697 261.239 68.1591 258.193 68.1591ZM312.195 43.25L301.99 43.5227C301.884 42.7955 301.596 42.1515 301.126 41.5909C300.657 41.0152 300.043 40.5682 299.286 40.25C298.543 39.9167 297.679 39.75 296.695 39.75C295.407 39.75 294.308 40.0076 293.399 40.5227C292.505 41.0379 292.066 41.7348 292.081 42.6136C292.066 43.2955 292.339 43.8864 292.899 44.3864C293.475 44.8864 294.498 45.2879 295.967 45.5909L302.695 46.8636C306.179 47.5303 308.77 48.6364 310.467 50.1818C312.179 51.7273 313.043 53.7727 313.058 56.3182C313.043 58.7121 312.331 60.7955 310.922 62.5682C309.528 64.3409 307.619 65.7197 305.195 66.7045C302.77 67.6742 299.998 68.1591 296.876 68.1591C291.892 68.1591 287.96 67.1364 285.081 65.0909C282.217 63.0303 280.581 60.2727 280.172 56.8182L291.149 56.5455C291.392 57.8182 292.02 58.7879 293.036 59.4545C294.051 60.1212 295.346 60.4545 296.922 60.4545C298.346 60.4545 299.505 60.1894 300.399 59.6591C301.293 59.1288 301.748 58.4242 301.763 57.5455C301.748 56.7576 301.399 56.1288 300.717 55.6591C300.036 55.1742 298.967 54.7955 297.513 54.5227L291.422 53.3636C287.922 52.7273 285.316 51.553 283.604 49.8409C281.892 48.1136 281.043 45.9167 281.058 43.25C281.043 40.9167 281.664 38.9242 282.922 37.2727C284.179 35.6061 285.967 34.3333 288.286 33.4545C290.604 32.5758 293.339 32.1364 296.49 32.1364C301.217 32.1364 304.945 33.1288 307.672 35.1136C310.399 37.0833 311.907 39.7955 312.195 43.25ZM339.514 32.5909V40.7727H317.492V32.5909H339.514ZM322.105 24.2273H333.219V56.5227C333.219 57.2045 333.325 57.7576 333.537 58.1818C333.764 58.5909 334.09 58.8864 334.514 59.0682C334.939 59.2348 335.446 59.3182 336.037 59.3182C336.461 59.3182 336.908 59.2803 337.378 59.2045C337.863 59.1136 338.227 59.0379 338.469 58.9773L340.151 67C339.62 67.1515 338.87 67.3409 337.901 67.5682C336.946 67.7955 335.802 67.9394 334.469 68C331.863 68.1212 329.628 67.8182 327.764 67.0909C325.916 66.3485 324.499 65.197 323.514 63.6364C322.545 62.0758 322.075 60.1136 322.105 57.75V24.2273Z" fill="white"/>
</svg>
