<svg width="48" height="48" viewBox="0 0 48 48" fill="none" xmlns="http://www.w3.org/2000/svg">
<rect width="48" height="48" rx="10" fill="#C1EF00"/>
<path d="M11.4333 28.3083C11.1941 28.3083 11 28.1229 11 27.8945V13.2414C11 12.557 11.5833 12 12.3 12H35.7C36.4167 12 37 12.557 37 13.2414V17.3063C37 17.5347 36.8059 17.7201 36.5667 17.7201C36.3275 17.7201 36.1333 17.5347 36.1333 17.3063V13.2414C36.1333 13.0138 35.9383 12.8276 35.7 12.8276H12.3C12.0617 12.8276 11.8667 13.0138 11.8667 13.2414V27.8945C11.8667 28.1229 11.6725 28.3083 11.4333 28.3083Z" fill="black" stroke="black" stroke-width="0.6"/>
<path d="M23.9998 36H19.2331C18.9939 36 18.7998 35.8146 18.7998 35.5862C18.7998 35.3578 18.9939 35.1724 19.2331 35.1724H20.0998C20.8165 35.1724 21.3998 34.6154 21.3998 33.931V31.862C21.3998 31.6336 21.5939 31.4482 21.8331 31.4482C22.0723 31.4482 22.2665 31.6336 22.2665 31.862V33.931C22.2665 34.3969 22.1044 34.8264 21.8323 35.1724H23.9998C24.239 35.1724 24.4331 35.3578 24.4331 35.5862C24.4331 35.8146 24.239 36 23.9998 36Z" fill="black" stroke="black" stroke-width="0.6"/>
<path d="M25.0111 31.8621H12.3C11.5833 31.8621 11 31.3051 11 30.6207V28.1379C11 27.9095 11.1941 27.7241 11.4333 27.7241H25.0111C25.2503 27.7241 25.4444 27.9095 25.4444 28.1379C25.4444 28.3663 25.2503 28.5517 25.0111 28.5517H11.8667V30.6207C11.8667 30.8483 12.0617 31.0345 12.3 31.0345H25.0111C25.2503 31.0345 25.4444 31.2198 25.4444 31.4483C25.4444 31.6767 25.2503 31.8621 25.0111 31.8621Z" fill="black" stroke="black" stroke-width="0.6"/>
<path d="M28.7663 17.7932H33.0997C33.3389 17.7932 33.533 17.6078 33.533 17.3794C33.533 17.151 33.3389 16.9656 33.0997 16.9656H28.7663C28.5271 16.9656 28.333 17.151 28.333 17.3794C28.333 17.6078 28.5271 17.7932 28.7663 17.7932Z" fill="black" stroke="black" stroke-width="0.6"/>
<path d="M30.4997 34.3448H31.3664C31.6056 34.3448 31.7997 34.1594 31.7997 33.931C31.7997 33.7026 31.6056 33.5172 31.3664 33.5172H30.4997C30.2605 33.5172 30.0664 33.7026 30.0664 33.931C30.0664 34.1594 30.2605 34.3448 30.4997 34.3448Z" fill="black" stroke="black" stroke-width="0.6"/>
<path fill-rule="evenodd" clip-rule="evenodd" d="M27.0329 36H34.8329C36.028 36 36.9995 35.0722 36.9995 33.931V17.3793C36.9995 16.238 36.028 15.3103 34.8329 15.3103H27.0329C25.8377 15.3103 24.8662 16.238 24.8662 17.3793V33.931C24.8662 35.0722 25.8377 36 27.0329 36ZM25.7329 17.3793C25.7329 16.6949 26.3161 16.1379 27.0329 16.1379H34.8329C35.5496 16.1379 36.1329 16.6949 36.1329 17.3793V33.931C36.1329 34.6154 35.5496 35.1724 34.8329 35.1724H27.0329C26.3161 35.1724 25.7329 34.6154 25.7329 33.931V17.3793Z" fill="black"/>
<path d="M34.8329 35.7H27.0329V36.3H34.8329V35.7ZM36.6995 33.931C36.6995 34.8937 35.8755 35.7 34.8329 35.7V36.3C36.1805 36.3 37.2995 35.2508 37.2995 33.931H36.6995ZM36.6995 17.3793V33.931H37.2995V17.3793H36.6995ZM34.8329 15.6103C35.8755 15.6103 36.6995 16.4166 36.6995 17.3793H37.2995C37.2995 16.0594 36.1805 15.0103 34.8329 15.0103V15.6103ZM27.0329 15.6103H34.8329V15.0103H27.0329V15.6103ZM25.1662 17.3793C25.1662 16.4166 25.9902 15.6103 27.0329 15.6103V15.0103C25.6853 15.0103 24.5662 16.0594 24.5662 17.3793H25.1662ZM25.1662 33.931V17.3793H24.5662V33.931H25.1662ZM27.0329 35.7C25.9902 35.7 25.1662 34.8937 25.1662 33.931H24.5662C24.5662 35.2508 25.6853 36.3 27.0329 36.3V35.7ZM27.0329 15.8379C26.1637 15.8379 25.4329 16.5163 25.4329 17.3793H26.0329C26.0329 16.8734 26.4686 16.4379 27.0329 16.4379V15.8379ZM34.8329 15.8379H27.0329V16.4379H34.8329V15.8379ZM36.4329 17.3793C36.4329 16.5163 35.7021 15.8379 34.8329 15.8379V16.4379C35.3971 16.4379 35.8329 16.8734 35.8329 17.3793H36.4329ZM36.4329 33.931V17.3793H35.8329V33.931H36.4329ZM34.8329 35.4724C35.7021 35.4724 36.4329 34.794 36.4329 33.931H35.8329C35.8329 34.4368 35.3971 34.8724 34.8329 34.8724V35.4724ZM27.0329 35.4724H34.8329V34.8724H27.0329V35.4724ZM25.4329 33.931C25.4329 34.794 26.1637 35.4724 27.0329 35.4724V34.8724C26.4686 34.8724 26.0329 34.4368 26.0329 33.931H25.4329ZM25.4329 17.3793V33.931H26.0329V17.3793H25.4329Z" fill="black"/>
</svg>
