<svg width="47" height="48" viewBox="0 0 47 48" fill="none" xmlns="http://www.w3.org/2000/svg">
<rect x="0.666992" width="46" height="48" rx="10" fill="#C1EF00"/>
<path d="M32.667 14.5H14.667C14.3908 14.5 14.167 14.7239 14.167 15V26H33.167V15C33.167 14.7239 32.9431 14.5 32.667 14.5Z" stroke="#252E00"/>
<path d="M35.167 26.1176C35.4431 26.1176 35.667 25.8938 35.667 25.6176V14.5C35.6653 13.12 34.547 12.0017 33.167 12H14.167C12.787 12.0017 11.6686 13.12 11.667 14.5V28.5C11.6686 29.88 12.787 30.9983 14.167 31H19.667V33.2325L18.3895 34.0825C18.25 34.1756 18.1665 34.3323 18.167 34.5V35C18.167 35.5523 18.6147 36 19.167 36H28.167C28.7193 36 29.167 35.5523 29.167 35V34.5C29.167 34.3329 29.0835 34.1768 28.9445 34.084L27.667 33.2325V31.0882C27.667 30.8121 27.4431 30.5882 27.167 30.5882C26.8909 30.5882 26.667 30.8121 26.667 31.0882V33.5C26.667 33.6671 26.7505 33.8232 26.8895 33.916L28.167 34.7675V35H19.167V34.7675L20.4445 33.9175C20.584 33.8244 20.6675 33.6677 20.667 33.5V31H33.167C34.547 30.9983 35.6653 29.88 35.667 28.5V26C35.667 25.7239 35.4431 25.5 35.167 25.5H12.5493C12.2732 25.5 12.0493 25.7239 12.0493 26C12.0493 26.2761 12.2732 26.5 12.5493 26.5H34.667V28.5C34.667 29.3284 33.9954 30 33.167 30H14.167C13.3386 30 12.667 29.3284 12.667 28.5V14.5C12.667 13.6716 13.3386 13 14.167 13H33.167C33.9954 13 34.667 13.6716 34.667 14.5V25.6176C34.667 25.8938 34.8909 26.1176 35.167 26.1176Z" fill="#141415" stroke="#252E00" stroke-width="0.4"/>
<path d="M21.5204 16.1527C21.3251 15.9575 21.0086 15.9575 20.8134 16.1527L17.8134 19.1527C17.6182 19.348 17.6182 19.6645 17.8134 19.8597L20.8134 22.8597C21.0096 23.0492 21.3214 23.0465 21.5143 22.8536C21.7072 22.6608 21.7099 22.3489 21.5204 22.1527L18.8739 19.5062L21.5204 16.8597C21.7156 16.6645 21.7156 16.348 21.5204 16.1527Z" fill="#141415"/>
<path d="M25.8138 22.8597C26.009 23.0548 26.3255 23.0548 26.5208 22.8597L29.5208 19.8597C29.716 19.6644 29.716 19.3479 29.5208 19.1527L26.5208 16.1527C26.3953 16.0227 26.2094 15.9706 26.0345 16.0163C25.8597 16.0621 25.7232 16.1986 25.6774 16.3734C25.6317 16.5482 25.6838 16.7341 25.8138 16.8597L28.4603 19.5062L25.8138 22.1527C25.6186 22.3479 25.6186 22.6644 25.8138 22.8597Z" fill="#141415"/>
</svg>
