<svg width="49" height="48" viewBox="0 0 49 48" fill="none" xmlns="http://www.w3.org/2000/svg">
<rect x="0.333008" width="47.7143" height="48" rx="10" fill="#C1EF00"/>
<path d="M11.9581 12C11.6128 12 11.333 12.2612 11.333 12.5834V34.9683C11.333 35.2543 11.4517 35.5274 11.6608 35.7225C11.8518 35.9008 12.1034 36 12.3647 36H36.4222C36.7675 36 37.0473 35.7388 37.0473 35.4166C37.0473 35.0944 36.7675 34.8333 36.4222 34.8333H14.5831C13.4785 34.8333 12.5831 33.9378 12.5831 32.8333V12.5834C12.5831 12.2612 12.3033 12 11.9581 12Z" fill="#141415"/>
<path fill-rule="evenodd" clip-rule="evenodd" d="M16.9581 27.1478C15.827 27.1357 14.8372 27.855 14.5725 28.8814C14.3077 29.9078 14.8384 30.9687 15.8515 31.4383C16.8645 31.908 18.0909 31.6616 18.8072 30.8445C19.5235 30.0274 19.5395 28.8567 18.8457 28.0229L21.771 24.0209C22.0248 24.1013 22.2905 24.1446 22.5585 24.1493C23.2434 24.1552 23.8985 23.8877 24.3586 23.4142L26.9588 25.141C26.9188 25.3096 26.8979 25.4817 26.8963 25.6544C26.8963 26.8916 27.9709 27.8945 29.2965 27.8945C30.622 27.8945 31.6966 26.8916 31.6966 25.6544C31.6947 25.1475 31.5048 24.6569 31.1591 24.2659L33.9468 20.2873C35.0818 20.6213 36.3064 20.1198 36.8116 19.1141C37.3167 18.1084 36.9465 16.909 35.9454 16.3084C34.9443 15.7077 33.6215 15.8913 32.851 16.7377C32.0804 17.5842 32.1 18.8322 32.8967 19.6573L30.1215 23.5775C29.8458 23.4799 29.5538 23.4286 29.259 23.4259C28.6036 23.4255 27.9764 23.6741 27.5214 24.1143L24.9087 22.4108C24.9216 22.2594 24.9216 22.1072 24.9087 21.9558C24.9595 20.9435 24.276 20.0254 23.2417 19.7169C22.2074 19.4085 21.0801 19.7865 20.4926 20.6388C19.9052 21.491 20.0039 22.6053 20.7334 23.3559L17.8457 27.3111C17.564 27.2033 17.2625 27.1478 16.9581 27.1478ZM34.6469 17.1021C35.282 17.1021 35.797 17.5827 35.797 18.1755C35.797 18.7683 35.282 19.2489 34.6469 19.2489C34.0117 19.2489 33.4968 18.7683 33.4968 18.1755C33.4968 17.5827 34.0117 17.1021 34.6469 17.1021ZM30.409 25.6544C30.409 25.0615 29.8941 24.581 29.259 24.581C28.6238 24.581 28.1089 25.0615 28.1089 25.6544C28.1089 26.2472 28.6238 26.7278 29.259 26.7278C29.8941 26.7278 30.409 26.2472 30.409 25.6544ZM22.5585 20.8357C23.1936 20.8357 23.7085 21.3163 23.7085 21.9091C23.7085 22.5019 23.1936 22.9825 22.5585 22.9825C21.9233 22.9825 21.4084 22.5019 21.4084 21.9091C21.4084 21.3163 21.9233 20.8357 22.5585 20.8357ZM15.8934 29.7931C16.0699 30.1971 16.4907 30.4612 16.9581 30.4613C17.5837 30.4615 18.0946 29.995 18.1082 29.4113C18.1184 28.9751 17.8447 28.5766 17.4158 28.4031C16.987 28.2296 16.4883 28.3155 16.1542 28.6206C15.82 28.9257 15.717 29.3892 15.8934 29.7931Z" fill="#141415"/>
</svg>
