<svg width="145" height="35" viewBox="0 0 145 35" fill="none" xmlns="http://www.w3.org/2000/svg">
<circle opacity="0.2" cx="22.1429" cy="17.1429" r="9.14286" stroke="black" stroke-opacity="0.6" stroke-width="6"/>
<circle cx="32.1429" cy="17.1429" r="9.14286" stroke="#C1EF00" stroke-width="6"/>
<path d="M58.6891 9.59712L61.9419 20.2505H62.0626L65.3155 9.59712H69.2501L64.3425 24.1426H59.6621L54.7544 9.59712H58.6891ZM73.0219 24.3272C72.3259 24.3272 71.708 24.2112 71.1682 23.9792C70.6332 23.7425 70.2094 23.3874 69.8969 22.9139C69.5892 22.4357 69.4353 21.8367 69.4353 21.117C69.4353 20.5109 69.5418 19.9996 69.7549 19.5829C69.968 19.1663 70.2615 18.8277 70.6356 18.5673C71.0096 18.3069 71.4405 18.1104 71.9282 17.9778C72.4159 17.8405 72.9367 17.7482 73.4907 17.7008C74.111 17.644 74.6105 17.5848 74.9893 17.5233C75.3681 17.457 75.6427 17.3646 75.8131 17.2463C75.9883 17.1232 76.0759 16.9503 76.0759 16.7278V16.6923C76.0759 16.3277 75.9504 16.046 75.6995 15.8471C75.4485 15.6483 75.11 15.5488 74.6839 15.5488C74.2246 15.5488 73.8553 15.6483 73.5759 15.8471C73.2966 16.046 73.119 16.3206 73.0432 16.671L69.8401 16.5574C69.9348 15.8945 70.1787 15.3026 70.5717 14.7818C70.9694 14.2562 71.5139 13.8443 72.2052 13.546C72.9012 13.243 73.7369 13.0914 74.7123 13.0914C75.4083 13.0914 76.0499 13.1743 76.637 13.34C77.2241 13.501 77.7355 13.7377 78.1711 14.0502C78.6067 14.358 78.9429 14.7368 79.1796 15.1866C79.4211 15.6364 79.5418 16.1502 79.5418 16.7278V24.1426H76.2748V22.6227H76.1896C75.9954 22.992 75.7468 23.3045 75.4438 23.5602C75.1455 23.8159 74.7928 24.0076 74.3856 24.1355C73.9831 24.2633 73.5286 24.3272 73.0219 24.3272ZM74.0944 22.0545C74.4684 22.0545 74.8046 21.9788 75.1029 21.8272C75.4059 21.6757 75.6474 21.4674 75.8273 21.2022C76.0073 20.9324 76.0972 20.6199 76.0972 20.2647V19.2278C75.9978 19.2799 75.8771 19.3272 75.735 19.3699C75.5977 19.4125 75.4462 19.4527 75.2805 19.4906C75.1147 19.5285 74.9443 19.5616 74.7691 19.59C74.5939 19.6184 74.4258 19.6445 74.2648 19.6681C73.9381 19.7202 73.6588 19.8007 73.4268 19.9096C73.1995 20.0185 73.0243 20.1606 72.9012 20.3358C72.7828 20.5062 72.7236 20.7098 72.7236 20.9466C72.7236 21.3064 72.8515 21.581 73.1072 21.7704C73.3676 21.9598 73.6967 22.0545 74.0944 22.0545ZM85.5384 9.59712V24.1426H82.0654V9.59712H85.5384ZM91.622 9.59712V24.1426H88.149V9.59712H91.622ZM100.39 13.2335V15.7903H93.5082V13.2335H100.39ZM94.9499 10.6199H98.4229V20.7122C98.4229 20.9252 98.4561 21.0981 98.5224 21.2306C98.5934 21.3585 98.6952 21.4508 98.8278 21.5076C98.9603 21.5597 99.119 21.5858 99.3036 21.5858C99.4362 21.5858 99.5759 21.5739 99.7226 21.5502C99.8742 21.5218 99.9878 21.4982 100.064 21.4792L100.589 23.9863C100.423 24.0337 100.189 24.0929 99.886 24.1639C99.5877 24.2349 99.2302 24.2799 98.8136 24.2988C97.9992 24.3367 97.3008 24.242 96.7184 24.0147C96.1407 23.7827 95.698 23.4229 95.3903 22.9352C95.0872 22.4475 94.9404 21.8343 94.9499 21.0957V10.6199ZM107.545 24.3485C106.403 24.3485 105.419 24.1236 104.59 23.6738C103.766 23.2193 103.132 22.573 102.687 21.7349C102.246 20.8921 102.026 19.8907 102.026 18.7306C102.026 17.6038 102.249 16.6189 102.694 15.7761C103.139 14.9286 103.766 14.2704 104.576 13.8017C105.385 13.3282 106.34 13.0914 107.438 13.0914C108.215 13.0914 108.925 13.2122 109.569 13.4537C110.213 13.6951 110.769 14.0526 111.238 14.5261C111.706 14.9996 112.071 15.5843 112.331 16.2804C112.592 16.9716 112.722 17.7647 112.722 18.6596V19.5261H103.241V17.5091H109.491C109.486 17.1397 109.398 16.8107 109.228 16.5218C109.057 16.233 108.823 16.0081 108.525 15.8471C108.231 15.6814 107.893 15.5985 107.509 15.5985C107.121 15.5985 106.773 15.6861 106.465 15.8613C106.157 16.0318 105.913 16.2662 105.733 16.5645C105.554 16.858 105.459 17.1918 105.449 17.5659V19.6184C105.449 20.0635 105.537 20.4541 105.712 20.7903C105.887 21.1217 106.136 21.3798 106.458 21.5645C106.78 21.7491 107.163 21.8414 107.608 21.8414C107.916 21.8414 108.196 21.7988 108.447 21.7136C108.697 21.6284 108.913 21.5029 109.093 21.3372C109.273 21.1715 109.408 20.9679 109.498 20.7264L112.687 20.8187C112.554 21.5337 112.263 22.1563 111.813 22.6866C111.368 23.2122 110.783 23.6217 110.059 23.9153C109.334 24.2041 108.496 24.3485 107.545 24.3485ZM124.42 16.5645L121.231 16.6497C121.198 16.4224 121.108 16.2212 120.961 16.046C120.814 15.8661 120.623 15.7264 120.386 15.627C120.154 15.5228 119.884 15.4707 119.576 15.4707C119.174 15.4707 118.831 15.5512 118.546 15.7122C118.267 15.8732 118.13 16.091 118.135 16.3656C118.13 16.5787 118.215 16.7633 118.39 16.9196C118.57 17.0758 118.89 17.2013 119.349 17.296L121.451 17.6937C122.54 17.902 123.35 18.2477 123.88 18.7306C124.415 19.2136 124.685 19.8528 124.69 20.6483C124.685 21.3964 124.463 22.0474 124.022 22.6014C123.587 23.1554 122.99 23.5862 122.233 23.894C121.475 24.197 120.608 24.3485 119.633 24.3485C118.075 24.3485 116.847 24.0289 115.947 23.3897C115.052 22.7458 114.541 21.8841 114.413 20.8045L117.843 20.7193C117.919 21.117 118.116 21.42 118.433 21.6284C118.75 21.8367 119.155 21.9409 119.647 21.9409C120.092 21.9409 120.455 21.858 120.734 21.6923C121.013 21.5266 121.155 21.3064 121.16 21.0318C121.155 20.7856 121.046 20.5891 120.833 20.4423C120.62 20.2908 120.286 20.1724 119.832 20.0872L117.929 19.725C116.835 19.5261 116.02 19.1591 115.485 18.6241C114.95 18.0843 114.685 17.3978 114.69 16.5645C114.685 15.8353 114.879 15.2127 115.272 14.6966C115.665 14.1757 116.224 13.778 116.948 13.5034C117.673 13.2288 118.528 13.0914 119.512 13.0914C120.99 13.0914 122.154 13.4016 123.007 14.0218C123.859 14.6374 124.33 15.4849 124.42 16.5645ZM132.957 13.2335V15.7903H126.075V13.2335H132.957ZM127.517 10.6199H130.99V20.7122C130.99 20.9252 131.023 21.0981 131.09 21.2306C131.161 21.3585 131.262 21.4508 131.395 21.5076C131.528 21.5597 131.686 21.5858 131.871 21.5858C132.003 21.5858 132.143 21.5739 132.29 21.5502C132.441 21.5218 132.555 21.4982 132.631 21.4792L133.156 23.9863C132.991 24.0337 132.756 24.0929 132.453 24.1639C132.155 24.2349 131.797 24.2799 131.381 24.2988C130.566 24.3367 129.868 24.242 129.286 24.0147C128.708 23.7827 128.265 23.4229 127.957 22.9352C127.654 22.4475 127.508 21.8343 127.517 21.0957V10.6199Z" fill="white"/>
</svg>
