<svg width="145" height="35" viewBox="0 0 145 35" fill="none" xmlns="http://www.w3.org/2000/svg">
<circle cx="22.1429" cy="17.1429" r="9.14286" stroke="#C1EF00" stroke-width="6"/>
<circle cx="32.1429" cy="17.1429" r="9.14286" stroke="#D9D9D9" stroke-opacity="0.2" stroke-width="6"/>
<path d="M58.6895 9.59737L61.9424 20.2508H62.0631L65.316 9.59737H69.2506L64.343 24.1428H59.6626L54.7549 9.59737H58.6895ZM73.0224 24.3275C72.3264 24.3275 71.7085 24.2115 71.1687 23.9795C70.6337 23.7427 70.2099 23.3876 69.8974 22.9141C69.5897 22.4359 69.4358 21.837 69.4358 21.1173C69.4358 20.5112 69.5423 19.9998 69.7554 19.5832C69.9684 19.1665 70.262 18.828 70.6361 18.5675C71.0101 18.3071 71.441 18.1106 71.9287 17.978C72.4164 17.8407 72.9372 17.7484 73.4912 17.7011C74.1114 17.6442 74.611 17.5851 74.9898 17.5235C75.3685 17.4572 75.6432 17.3649 75.8136 17.2465C75.9888 17.1234 76.0764 16.9506 76.0764 16.728V16.6925C76.0764 16.328 75.9509 16.0462 75.7 15.8474C75.449 15.6485 75.1105 15.5491 74.6844 15.5491C74.2251 15.5491 73.8558 15.6485 73.5764 15.8474C73.297 16.0462 73.1195 16.3209 73.0437 16.6712L69.8406 16.5576C69.9353 15.8947 70.1791 15.3029 70.5721 14.782C70.9699 14.2565 71.5144 13.8445 72.2057 13.5462C72.9017 13.2432 73.7374 13.0917 74.7128 13.0917C75.4088 13.0917 76.0504 13.1745 76.6375 13.3403C77.2246 13.5012 77.736 13.738 78.1716 14.0505C78.6072 14.3583 78.9434 14.737 79.1801 15.1869C79.4216 15.6367 79.5423 16.1504 79.5423 16.728V24.1428H76.2753V22.6229H76.19C75.9959 22.9923 75.7473 23.3048 75.4443 23.5604C75.146 23.8161 74.7933 24.0079 74.3861 24.1357C73.9836 24.2636 73.5291 24.3275 73.0224 24.3275ZM74.0949 22.0548C74.4689 22.0548 74.8051 21.979 75.1034 21.8275C75.4064 21.676 75.6479 21.4676 75.8278 21.2025C76.0077 20.9326 76.0977 20.6201 76.0977 20.265V19.228C75.9983 19.2801 75.8775 19.3275 75.7355 19.3701C75.5982 19.4127 75.4467 19.453 75.2809 19.4908C75.1152 19.5287 74.9448 19.5619 74.7696 19.5903C74.5944 19.6187 74.4263 19.6447 74.2653 19.6684C73.9386 19.7205 73.6593 19.801 73.4273 19.9099C73.2 20.0188 73.0248 20.1608 72.9017 20.336C72.7833 20.5065 72.7241 20.7101 72.7241 20.9468C72.7241 21.3066 72.852 21.5813 73.1077 21.7707C73.3681 21.9601 73.6971 22.0548 74.0949 22.0548ZM85.5389 9.59737V24.1428H82.0659V9.59737H85.5389ZM91.6225 9.59737V24.1428H88.1495V9.59737H91.6225ZM100.391 13.2337V15.7905H93.5086V13.2337H100.391ZM94.9504 10.6201H98.4234V20.7124C98.4234 20.9255 98.4566 21.0983 98.5229 21.2309C98.5939 21.3587 98.6957 21.4511 98.8282 21.5079C98.9608 21.56 99.1194 21.586 99.3041 21.586C99.4367 21.586 99.5764 21.5742 99.7231 21.5505C99.8746 21.5221 99.9883 21.4984 100.064 21.4795L100.59 23.9866C100.424 24.0339 100.19 24.0931 99.8865 24.1641C99.5882 24.2352 99.2307 24.2801 98.814 24.2991C97.9996 24.337 97.3013 24.2423 96.7189 24.015C96.1412 23.783 95.6985 23.4231 95.3907 22.9354C95.0877 22.4477 94.9409 21.8346 94.9504 21.0959V10.6201ZM107.545 24.3488C106.404 24.3488 105.419 24.1239 104.59 23.6741C103.767 23.2195 103.132 22.5732 102.687 21.7352C102.247 20.8923 102.027 19.8909 102.027 18.7309C102.027 17.604 102.249 16.6191 102.694 15.7763C103.139 14.9288 103.767 14.2707 104.576 13.8019C105.386 13.3284 106.34 13.0917 107.438 13.0917C108.215 13.0917 108.925 13.2124 109.569 13.4539C110.213 13.6954 110.769 14.0529 111.238 14.5263C111.707 14.9998 112.072 15.5846 112.332 16.2806C112.592 16.9719 112.723 17.765 112.723 18.6599V19.5263H103.241V17.5093H109.491C109.486 17.14 109.399 16.8109 109.228 16.5221C109.058 16.2333 108.823 16.0084 108.525 15.8474C108.232 15.6816 107.893 15.5988 107.509 15.5988C107.121 15.5988 106.773 15.6864 106.465 15.8616C106.158 16.032 105.914 16.2664 105.734 16.5647C105.554 16.8583 105.459 17.1921 105.45 17.5661V19.6187C105.45 20.0638 105.537 20.4544 105.713 20.7905C105.888 21.122 106.136 21.38 106.458 21.5647C106.78 21.7494 107.164 21.8417 107.609 21.8417C107.917 21.8417 108.196 21.7991 108.447 21.7138C108.698 21.6286 108.913 21.5031 109.093 21.3374C109.273 21.1717 109.408 20.9681 109.498 20.7266L112.687 20.819C112.554 21.5339 112.263 22.1566 111.813 22.6869C111.368 23.2124 110.784 23.622 110.059 23.9155C109.335 24.2044 108.497 24.3488 107.545 24.3488ZM124.421 16.5647L121.232 16.6499C121.198 16.4227 121.108 16.2214 120.962 16.0462C120.815 15.8663 120.623 15.7266 120.386 15.6272C120.154 15.523 119.885 15.4709 119.577 15.4709C119.174 15.4709 118.831 15.5514 118.547 15.7124C118.268 15.8734 118.13 16.0912 118.135 16.3658C118.13 16.5789 118.215 16.7636 118.391 16.9198C118.571 17.0761 118.89 17.2015 119.349 17.2962L121.452 17.694C122.541 17.9023 123.35 18.2479 123.881 18.7309C124.416 19.2138 124.686 19.853 124.69 20.6485C124.686 21.3966 124.463 22.0477 124.023 22.6016C123.587 23.1556 122.991 23.5865 122.233 23.8942C121.475 24.1973 120.609 24.3488 119.634 24.3488C118.076 24.3488 116.847 24.0292 115.947 23.39C115.053 22.746 114.541 21.8843 114.413 20.8048L117.844 20.7195C117.92 21.1173 118.116 21.4203 118.433 21.6286C118.751 21.837 119.155 21.9411 119.648 21.9411C120.093 21.9411 120.455 21.8583 120.734 21.6925C121.014 21.5268 121.156 21.3066 121.161 21.032C121.156 20.7858 121.047 20.5893 120.834 20.4425C120.621 20.291 120.287 20.1727 119.832 20.0874L117.929 19.7252C116.835 19.5263 116.021 19.1594 115.486 18.6244C114.951 18.0846 114.686 17.398 114.69 16.5647C114.686 15.8355 114.88 15.2129 115.273 14.6968C115.666 14.176 116.224 13.7782 116.949 13.5036C117.673 13.229 118.528 13.0917 119.513 13.0917C120.99 13.0917 122.155 13.4018 123.007 14.0221C123.859 14.6376 124.331 15.4852 124.421 16.5647ZM132.958 13.2337V15.7905H126.076V13.2337H132.958ZM127.518 10.6201H130.991V20.7124C130.991 20.9255 131.024 21.0983 131.09 21.2309C131.161 21.3587 131.263 21.4511 131.395 21.5079C131.528 21.56 131.687 21.586 131.871 21.586C132.004 21.586 132.144 21.5742 132.29 21.5505C132.442 21.5221 132.555 21.4984 132.631 21.4795L133.157 23.9866C132.991 24.0339 132.757 24.0931 132.454 24.1641C132.155 24.2352 131.798 24.2801 131.381 24.2991C130.567 24.337 129.868 24.2423 129.286 24.015C128.708 23.783 128.266 23.4231 127.958 22.9354C127.655 22.4477 127.508 21.8346 127.518 21.0959V10.6201Z" fill="white"/>
</svg>
