<svg width="79" height="70" viewBox="0 0 79 70" fill="none" xmlns="http://www.w3.org/2000/svg">
<path d="M60.212 68.9851L31.7795 46.6283C37.1262 41.7026 65.4646 15.5713 66.7465 14.3454L66.7466 14.3453C67.2868 13.8285 67.6491 13.3268 67.8168 12.8661C67.9842 12.4061 67.9821 11.8854 67.6078 11.5189C67.262 11.1805 66.7468 11.1286 66.2613 11.2071C65.7563 11.2888 65.1695 11.5252 64.5391 11.9176L64.539 11.9175L64.5305 11.9231L20.126 40.8422L3.15265 34.9854L3.15247 34.9853L3.13505 34.9786C3.11875 34.9723 3.09333 34.9622 3.06003 34.9482C2.99337 34.9203 2.89553 34.8773 2.77631 34.819C2.53682 34.7019 2.21654 34.5255 1.89097 34.289C1.22613 33.8061 0.616917 33.1305 0.511302 32.2597L0.511218 32.259C0.415416 31.4781 0.963386 30.8042 1.73228 30.2644C2.09952 30.0065 2.47863 29.8079 2.76866 29.6732C2.91286 29.6063 3.03302 29.556 3.11601 29.5229C3.15745 29.5064 3.18949 29.4942 3.21046 29.4864L3.23335 29.4779L3.23815 29.4762L3.23831 29.4762L3.23855 29.4761L3.23872 29.476L3.23882 29.476L3.24906 29.4724L3.25962 29.4681L73.4202 1.24189L73.4296 1.23808L73.4387 1.23401L73.4388 1.23397L73.4389 1.23391L73.439 1.23388L73.4409 1.23302L73.4509 1.2286C73.4602 1.22451 73.4748 1.21819 73.4942 1.20993C73.533 1.19341 73.5912 1.16915 73.666 1.13944C73.8157 1.07994 74.031 0.998963 74.2897 0.914556C74.8114 0.744306 75.4901 0.566596 76.1555 0.514866C76.8329 0.462208 77.4182 0.546338 77.8213 0.815553C78.1829 1.05711 78.4898 1.51096 78.4997 2.43315L66.0226 66.9403C66.0112 66.9667 65.9934 67.0062 65.9691 67.0565C65.9183 67.1616 65.8394 67.3127 65.7303 67.4892C65.5107 67.8441 65.1761 68.2896 64.712 68.6704C64.2508 69.0489 63.6653 69.361 62.9327 69.4638C62.2129 69.5649 61.3158 69.4689 60.212 68.9851Z" fill="#C1EF00" stroke="#141415"/>
</svg>
