<svg width="20" height="21" viewBox="0 0 20 21" fill="none" xmlns="http://www.w3.org/2000/svg">
<path fill-rule="evenodd" clip-rule="evenodd" d="M9.47745 0.06951C9.81975 -0.02317 10.1805 -0.02317 10.5228 0.06951C10.9581 0.187372 11.3181 0.491324 11.5964 0.707801L18.3787 5.98293C18.7873 6.30077 19.148 6.57025 19.4121 6.92736C19.6291 7.22075 19.7907 7.55126 19.8891 7.90266C20.0088 8.33039 20.0001 8.78049 20.0001 9.29821V16.5717C20.0002 17.0988 20.0002 17.5536 19.9696 17.9282C19.9373 18.3235 19.866 18.7167 19.6732 19.0951C19.3855 19.6596 18.9266 20.1185 18.3621 20.4062C17.9837 20.599 17.5905 20.6703 17.1952 20.7026C16.8206 20.7332 16.3658 20.7332 15.8387 20.7331H4.16157C3.63443 20.7332 3.17968 20.7332 2.80511 20.7026C2.40977 20.6703 2.01655 20.599 1.63817 20.4062C1.07368 20.1185 0.61474 19.6596 0.32712 19.0951C0.134326 18.7167 0.0630099 18.3235 0.030709 17.9282C0.000105155 17.5536 0.000120653 17.0988 0.000138534 16.5717L0.000139488 9.29821C0.000139488 8.78049 -0.00854716 8.33039 0.11118 7.90266C0.209542 7.55125 0.371188 7.22074 0.58818 6.92736C0.852308 6.57025 1.21292 6.30078 1.62159 5.98293L8.40389 0.707801C8.68222 0.491324 9.04214 0.187373 9.47745 0.06951ZM8.00014 18.7331H12.0001V12.3331C12.0001 12.0248 11.9987 11.853 11.9887 11.7446C11.8803 11.7346 11.7085 11.7331 11.4001 11.7331H8.60014C8.29181 11.7331 8.11997 11.7346 8.01159 11.7446C8.00159 11.853 8.00014 12.0248 8.00014 12.3331V18.7331ZM14.0001 18.7331L14.0001 12.3013C14.0002 12.0489 14.0002 11.8031 13.9832 11.5949C13.9645 11.3663 13.9204 11.0966 13.7822 10.8252C13.5904 10.4488 13.2844 10.1429 12.9081 9.95113C12.6367 9.81283 12.367 9.76876 12.1384 9.75008C11.9302 9.73308 11.6844 9.73311 11.432 9.73314H8.56826C8.31587 9.73311 8.07007 9.73308 7.86191 9.75008C7.63332 9.76876 7.36358 9.81283 7.09216 9.95113C6.71583 10.1429 6.40987 10.4488 6.21813 10.8252C6.07983 11.0966 6.03576 11.3663 6.01709 11.5949C6.00008 11.8031 6.00011 12.0489 6.00014 12.3012L6.00014 18.7331H4.20014C3.62359 18.7331 3.25131 18.7324 2.96798 18.7092C2.69631 18.687 2.59559 18.6493 2.54615 18.6241C2.35799 18.5283 2.20501 18.3753 2.10913 18.1871C2.08394 18.1377 2.04626 18.037 2.02407 17.7653C2.00092 17.482 2.00014 17.1097 2.00014 16.5331V9.29821C2.00014 8.66722 2.00883 8.54296 2.03715 8.44176C2.06994 8.32462 2.12382 8.21445 2.19615 8.11666C2.25864 8.03217 2.3514 7.94902 2.84947 7.56163L9.63177 2.2865C9.82502 2.13621 9.92939 2.05631 10.0001 2.00985C10.0709 2.05631 10.1753 2.13621 10.3685 2.28651L17.1508 7.56163C17.6489 7.94902 17.7416 8.03217 17.8041 8.11666C17.8765 8.21445 17.9303 8.32462 17.9631 8.44176C17.9915 8.54296 18.0001 8.66722 18.0001 9.29821V16.5331C18.0001 17.1097 17.9994 17.482 17.9762 17.7653C17.954 18.037 17.9163 18.1377 17.8911 18.1871C17.7953 18.3753 17.6423 18.5283 17.4541 18.6241C17.4047 18.6493 17.304 18.687 17.0323 18.7092C16.749 18.7324 16.3767 18.7331 15.8001 18.7331H14.0001Z" fill="#C1EF00"/>
</svg>
