<svg width="39" height="24" viewBox="0 0 39 24" fill="none" xmlns="http://www.w3.org/2000/svg">
<path d="M0.078125 0.09375H7.48438L12.6406 16.5781L17.7188 0.09375H24.9062L16.4062 23H8.73438L0.078125 0.09375ZM34.5 0.09375V6.40625H38V11.0469H34.5V16.9375C34.5 17.6458 34.5677 18.1146 34.7031 18.3438C34.9115 18.6979 35.276 18.875 35.7969 18.875C36.2656 18.875 36.9219 18.7396 37.7656 18.4688L38.2344 22.8594C36.6615 23.2031 35.1927 23.375 33.8281 23.375C32.2448 23.375 31.0781 23.1719 30.3281 22.7656C29.5781 22.3594 29.0208 21.7448 28.6562 20.9219C28.3021 20.0885 28.125 18.7448 28.125 16.8906V11.0469H25.7812V6.40625H28.125V3.35938L34.5 0.09375Z" fill="white"/>
</svg>
