<svg width="40" height="46" viewBox="0 0 40 46" fill="none" xmlns="http://www.w3.org/2000/svg">
<circle cx="20" cy="26" r="18.5" stroke="#141415" stroke-width="3" stroke-dasharray="4 4"/>
<circle cx="20" cy="26" r="18.5" stroke="url(#paint0_linear_32_5994)" stroke-width="3"/>
<circle cx="20" cy="26" r="17" fill="#141415"/>
<path d="M17.8125 27.9453V29.4453H9.60938L9.54688 28.3125L14.4531 20.625H15.9609L14.3281 23.4219L11.5078 27.9453H17.8125ZM16.3906 20.625V32H14.5078V20.625H16.3906ZM20.9453 30.1875L20.9375 31.5312C20.9375 32.0625 20.8047 32.6094 20.5391 33.1719C20.2734 33.7344 19.9219 34.1979 19.4844 34.5625L18.4766 33.9766C18.6224 33.7422 18.7552 33.5052 18.875 33.2656C18.9948 33.026 19.0911 32.7708 19.1641 32.5C19.237 32.2292 19.2734 31.9297 19.2734 31.6016V30.1875H20.9453ZM30.2031 20.625V21.6562L25.6562 32H23.6719L28.2109 22.125H22.3203V20.625H30.2031Z" fill="white"/>
<path d="M22.1797 4.03906L25.5312 4.53125C25.8125 4.57812 26.0469 4.76562 26.1406 5.04688C26.2344 5.30469 26.1641 5.60938 25.9531 5.79688L23.5156 8.21094L24.1016 11.6328C24.1484 11.9141 24.0312 12.1953 23.7969 12.3594C23.5625 12.5469 23.2578 12.5469 23 12.4297L20 10.8125L16.9766 12.4297C16.7422 12.5469 16.4141 12.5469 16.2031 12.3594C15.9688 12.1953 15.8516 11.9141 15.8984 11.6328L16.4609 8.21094L14.0234 5.79688C13.8125 5.60938 13.7422 5.30469 13.8359 5.04688C13.9297 4.76562 14.1641 4.57812 14.4453 4.53125L17.8203 4.03906L19.3203 0.921875C19.4375 0.664062 19.6953 0.5 20 0.5C20.2812 0.5 20.5391 0.664062 20.6562 0.921875L22.1797 4.03906Z" fill="#C1EF00"/>
<defs>
<linearGradient id="paint0_linear_32_5994" x1="40" y1="26" x2="2.4" y2="26" gradientUnits="userSpaceOnUse">
<stop stop-color="#C1EF00"/>
<stop offset="1" stop-color="#C1EF00" stop-opacity="0.5"/>
</linearGradient>
</defs>
</svg>
